<svg width="25" height="25" viewBox="0 0 25 25" fill="none" xmlns="http://www.w3.org/2000/svg">
<g clip-path="url(#clip0)">
<path d="M8.76287 13.5183C8.76287 13.2177 8.51901 12.9741 8.21812 12.9741H6.31716C6.01661 12.9741 5.77271 13.2177 5.77271 13.5183V15.419C5.77271 15.7201 6.01661 15.9637 6.31716 15.9637H8.21812C8.51901 15.9637 8.76287 15.7201 8.76287 15.419V13.5183Z" fill="white"/>
<path d="M13.5141 13.5183C13.5141 13.2177 13.2701 12.9741 12.9698 12.9741H11.0686C10.7681 12.9741 10.5242 13.2177 10.5242 13.5183V15.419C10.5242 15.7201 10.7681 15.9637 11.0686 15.9637H12.9698C13.2701 15.9637 13.5141 15.7201 13.5141 15.419V13.5183Z" fill="white"/>
<path d="M18.2646 13.5183C18.2646 13.2177 18.0207 12.9741 17.7201 12.9741H15.8192C15.5183 12.9741 15.2744 13.2177 15.2744 13.5183V15.419C15.2744 15.7201 15.5183 15.9637 15.8192 15.9637H17.7201C18.0207 15.9637 18.2646 15.7201 18.2646 15.419V13.5183Z" fill="white"/>
<path d="M8.76287 18.2695C8.76287 17.9683 8.51901 17.725 8.21812 17.725H6.31716C6.01661 17.725 5.77271 17.9683 5.77271 18.2695V20.1699C5.77271 20.4707 6.01661 20.7143 6.31716 20.7143H8.21812C8.51901 20.7143 8.76287 20.4706 8.76287 20.1699V18.2695Z" fill="white"/>
<path d="M13.5141 18.2695C13.5141 17.9683 13.2701 17.725 12.9698 17.725H11.0686C10.7681 17.725 10.5242 17.9683 10.5242 18.2695V20.1699C10.5242 20.4707 10.7681 20.7143 11.0686 20.7143H12.9698C13.2701 20.7143 13.5141 20.4706 13.5141 20.1699V18.2695Z" fill="white"/>
<path d="M18.2646 18.2695C18.2646 17.9683 18.0207 17.725 17.7204 17.725H15.8192C15.5183 17.725 15.2744 17.9683 15.2744 18.2695V20.1699C15.2744 20.4707 15.5183 20.7143 15.8192 20.7143H17.7204C18.0207 20.7143 18.2646 20.4706 18.2646 20.1699V18.2695Z" fill="white"/>
<path d="M21.664 2.94988V5.85307C21.664 7.16528 20.5995 8.22273 19.2874 8.22273H17.7882C16.4761 8.22273 15.3975 7.16528 15.3975 5.85307V2.93945H8.64026V5.85307C8.64026 7.16528 7.56168 8.22273 6.24976 8.22273H4.75028C3.43831 8.22273 2.37384 7.16528 2.37384 5.85307V2.94988C1.22716 2.98444 0.284912 3.93328 0.284912 5.09952V22.1136C0.284912 23.3018 1.24796 24.2776 2.43613 24.2776H21.6016C22.788 24.2776 23.7528 23.2998 23.7528 22.1136V5.09952C23.7528 3.93328 22.8106 2.98444 21.664 2.94988ZM20.9676 21.0541C20.9676 21.5676 20.5513 21.9842 20.0376 21.9842H3.95916C3.44548 21.9842 3.02916 21.5676 3.02916 21.0541V12.2657C3.02916 11.752 3.44544 11.3355 3.95916 11.3355H20.0376C20.5513 11.3355 20.9676 11.752 20.9676 12.2657L20.9676 21.0541Z" fill="white"/>
<path d="M4.74499 6.66634H6.2279C6.67801 6.66634 7.04296 6.30192 7.04296 5.85182V1.0924C7.04296 0.642245 6.67801 0.277588 6.2279 0.277588H4.74499C4.29483 0.277588 3.92993 0.642245 3.92993 1.0924V5.85182C3.92993 6.30192 4.29483 6.66634 4.74499 6.66634Z" fill="white"/>
<path d="M17.7694 6.66634H19.2523C19.7021 6.66634 20.067 6.30192 20.067 5.85182V1.0924C20.0671 0.642245 19.7021 0.277588 19.2523 0.277588H17.7694C17.3193 0.277588 16.9543 0.642245 16.9543 1.0924V5.85182C16.9543 6.30192 17.3193 6.66634 17.7694 6.66634Z" fill="white"/>
</g>
<defs>
<clipPath id="clip0">
<rect width="24" height="24" fill="white" transform="translate(0.019043 0.277588)"/>
</clipPath>
</defs>
</svg>
