<svg width="155" height="28" viewBox="0 0 155 28" fill="none" xmlns="http://www.w3.org/2000/svg">
<path d="M32.5218 22.73L30.783 21.8902V11.5197L32.5218 10.6799V10.5703H27.0784V10.6799L28.8551 11.5197V21.8902L27.0784 22.73V22.8396H32.5218V22.73Z" fill="white"/>
<path d="M38.8127 22.7325L37.4688 22.0893V15.8717L37.5051 15.836C37.7593 15.5859 38.1226 15.4072 38.5584 15.3C39.6844 15.0141 40.5925 15.1213 41.1736 15.5859C41.5732 15.9075 41.7548 16.372 41.7548 16.9794V22.0893L40.4108 22.7325V22.8397H44.7695V22.7325L43.4619 22.0893V16.0504C43.4619 15.3 43.2076 14.7283 42.7355 14.3709C42.227 13.9779 41.6095 13.7992 40.8467 13.7992C40.2656 13.7992 39.757 13.9064 39.2849 14.1565C38.8127 14.4067 38.3405 14.764 37.832 15.2643L37.7957 15.3H37.5414L37.3598 13.7992L34.6356 14.9069L35.8706 15.9075V22.0893L34.563 22.7325V22.8397H38.9216V22.7325H38.8127Z" fill="white"/>
<path d="M52.4611 22.1815C52.7891 21.7717 52.9349 21.2502 52.9349 20.6541C52.9349 20.0207 52.8256 19.5364 52.5704 19.2011C52.3153 18.8658 52.0236 18.6051 51.6591 18.3815C51.2946 18.1953 50.8936 17.9717 50.4927 17.8227C49.8001 17.5247 49.2898 17.2266 48.9617 16.9659C48.5972 16.7051 48.4149 16.2953 48.4149 15.811C48.4149 15.3639 48.5607 14.9913 48.8888 14.7678C49.1804 14.507 49.5814 14.3953 50.0552 14.3953C50.7478 14.3953 51.3675 14.7678 51.8414 15.5502L52.4975 16.5933H52.5704V14.4698C52.1695 14.2835 51.7685 14.0972 51.3675 13.9855C50.9301 13.8737 50.4927 13.7992 49.9823 13.7992C49.472 13.7992 48.9981 13.911 48.5607 14.1717C48.1233 14.4325 47.7588 14.7678 47.4672 15.1776C47.1756 15.5874 47.0297 16.0717 47.0297 16.5933C47.0297 17.2266 47.212 17.7482 47.5765 18.1208C47.941 18.4933 48.4878 18.8658 49.1804 19.1639L50.4562 19.76C50.8207 19.9462 51.1123 20.1325 51.2946 20.3933C51.5133 20.6541 51.5862 20.9521 51.5862 21.3619C51.5862 21.8462 51.404 22.256 51.1123 22.5168C50.7843 22.7776 50.3469 22.9266 49.7636 22.9266C48.7794 22.9266 48.0139 22.5168 47.5401 21.6972L46.9204 20.6168H46.811V22.7776C47.2485 23.0011 47.7223 23.1874 48.1598 23.2992C48.6336 23.4109 49.1804 23.4854 49.8365 23.4854C50.3104 23.4854 50.7843 23.3737 51.2582 23.1502C51.732 22.9266 52.133 22.5913 52.4611 22.1815Z" fill="white"/>
<path d="M61.5348 22.4911C61.9777 22.2471 62.2998 22.0032 62.4608 21.7244V21.6547C62.2998 21.6895 62.0985 21.7244 61.8972 21.7244C61.6556 21.7592 61.3737 21.7592 61.0919 21.7592C60.6088 21.7592 60.1659 21.6895 59.8035 21.5153C59.4009 21.341 59.1996 21.0622 59.1996 20.644V14.6847H62.2193V14.0225H59.1996V11.8618L57.4683 13.9877L55.6565 14.6847H57.3475V21.0274C57.3475 21.6198 57.5891 22.038 58.0722 22.3517C58.5554 22.6653 59.1593 22.8396 59.8438 22.8396C60.488 22.8396 61.0919 22.735 61.5348 22.4911Z" fill="white"/>
<path fill-rule="evenodd" clip-rule="evenodd" d="M65.244 19.6653C65.7515 19.1785 66.6495 18.8039 67.8988 18.5043L70.1632 17.9426V16.3696C70.1632 15.8078 69.968 15.3584 69.5385 14.9838C69.1481 14.6468 68.6406 14.4595 68.094 14.4595C67.5084 14.4595 67.0789 14.6093 66.8447 14.9089C66.6104 15.2086 66.4933 15.6205 66.4933 16.1074V16.7441L66.4543 16.7815H65.283C65.0488 16.7815 64.9707 16.7441 64.9317 16.7066C64.9317 16.6969 64.9263 16.6845 64.9185 16.6663C64.8962 16.6147 64.8536 16.516 64.8536 16.2947C64.8536 16.0325 64.9317 15.7329 65.1269 15.4333C65.283 15.1337 65.5954 14.8715 65.9858 14.6468C66.4152 14.3846 66.8837 14.1599 67.3132 14.0101C68.2502 13.7105 69.3433 13.7479 70.3193 14.0101C70.8269 14.1599 71.2173 14.3846 71.5296 14.7217C71.842 15.0588 71.9981 15.5082 71.9981 16.07V21.9874L72.0372 22.0248C72.1543 22.1372 72.3105 22.2495 72.5057 22.3244C72.7009 22.3993 72.9742 22.4368 73.3255 22.4368H74.0283C73.8721 22.699 73.5988 22.9237 73.2865 23.1484C72.9351 23.3731 72.5057 23.4854 72.0372 23.4854C71.5687 23.4854 71.1783 23.3731 70.905 23.1484C70.5926 22.9237 70.3974 22.624 70.2803 22.2495L70.2413 22.1746H69.9289L69.8899 22.2121C69.4995 22.5491 69.07 22.8488 68.5234 23.1109C68.0159 23.3731 67.4303 23.4854 66.8447 23.4854C66.1419 23.4854 65.5954 23.2982 65.1659 22.9237C64.6974 22.5491 64.5022 22.0248 64.5022 21.3507C64.5022 20.714 64.7364 20.1522 65.244 19.6653ZM68.9527 22.2495C69.2651 22.1746 69.6164 22.0622 70.0068 21.9124L70.0849 21.875H70.0458V18.5043L69.8897 18.5418C68.8356 18.729 68.0158 18.9537 67.5083 19.1784C66.9617 19.4032 66.6104 19.6653 66.4542 19.9649C66.298 20.2271 66.22 20.5642 66.22 20.9012C66.22 21.5754 66.5323 22.3619 67.9767 22.3619C68.3281 22.3619 68.6404 22.3244 68.9527 22.2495Z" fill="white"/>
<path d="M78.9584 22.7325L77.6145 22.0893V15.8717L77.6508 15.836C77.9051 15.5859 78.2683 15.4072 78.7042 15.3C79.8302 15.0141 80.7382 15.1213 81.3194 15.5859C81.7189 15.9075 81.9005 16.372 81.9005 16.9794V22.0893L80.5566 22.7325V22.8397H84.9152V22.7325L83.6077 22.0893V16.0504C83.6077 15.3 83.3534 14.7283 82.8812 14.3709C82.3727 13.9779 81.7552 13.7992 80.9925 13.7992C80.4113 13.7992 79.9028 13.9064 79.4306 14.1565C78.9584 14.4067 78.4862 14.764 77.9777 15.2643L77.9414 15.3H77.6872L77.5055 13.7992L74.7814 14.9069L76.0163 15.9075V22.0893L74.7087 22.7325V22.8397H79.0674V22.7325H78.9584Z" fill="white"/>
<path d="M88.6476 21.0331C88.6476 21.6237 88.8891 22.0406 89.3723 22.3532C89.8554 22.6659 90.4594 22.8396 91.1438 22.8396C91.8283 22.8396 92.392 22.7006 92.8348 22.4574C93.2777 22.2143 93.5998 21.9711 93.7609 21.6932V21.6237C93.5998 21.6584 93.3985 21.6932 93.1972 21.6932C92.9556 21.7279 92.6738 21.7279 92.392 21.7279C91.9088 21.7279 91.4659 21.6584 91.1036 21.4847C90.7009 21.311 90.4996 21.0331 90.4996 20.6162V14.6757H93.5193V14.0157H90.4996V11.8618L88.7683 13.9809L86.9565 14.6757H88.6476V21.0331Z" fill="white"/>
<path d="M103.968 22.73L102.229 21.8902V11.5197L103.968 10.6799V10.5703H98.5242V10.6799L100.263 11.5197V21.8902L98.5242 22.73V22.8396H103.968V22.73Z" fill="white"/>
<path d="M110.939 22.7325L109.595 22.0893V15.8717L109.631 15.836C109.886 15.5859 110.249 15.4072 110.685 15.3C111.811 15.0141 112.719 15.1213 113.3 15.5859C113.699 15.9075 113.881 16.372 113.881 16.9794V22.0893L112.537 22.7325V22.8397H116.896V22.7325L115.588 22.0893V16.0504C115.588 15.3 115.334 14.7283 114.862 14.3709C114.353 13.9779 113.736 13.7992 112.973 13.7992C112.392 13.7992 111.883 13.9064 111.411 14.1565C110.939 14.4067 110.467 14.764 109.958 15.2643L109.922 15.3H109.668L109.486 13.7992L106.762 14.9069L107.997 15.9075V22.0893L106.689 22.7325V22.8397H111.048V22.7325H110.939Z" fill="white"/>
<path d="M122.778 22.8397H123.113L126.94 14.6012L128.463 13.9086V13.7992H124.599V13.9086L126.085 14.6376L126.048 14.8563L123.744 20.3244H123.521L120.883 14.7105V14.4918L122.518 13.9086V13.7992H117.576V13.9086L118.914 14.5283L122.778 22.8397Z" fill="white"/>
<path fill-rule="evenodd" clip-rule="evenodd" d="M136.508 22.8521C135.862 23.2619 135.103 23.4854 134.229 23.4854C132.862 23.4854 131.799 23.1129 131.001 22.256C130.242 21.4737 129.824 20.3933 129.824 19.0521C129.824 18.0462 130.052 17.1149 130.47 16.3325C130.925 15.5502 131.495 14.9168 132.179 14.4698C132.862 14.0227 133.66 13.7992 134.457 13.7992C135.559 13.7992 136.432 14.1717 137.04 14.9168C137.647 15.6619 137.951 16.7051 137.989 18.0835L137.951 18.1208H131.533V18.2698C131.533 18.9031 131.685 19.5364 131.913 20.0953C132.141 20.6541 132.558 21.1384 133.09 21.4737C133.66 21.809 134.381 21.9953 135.293 21.9953C136.09 21.9953 137.002 21.7345 137.989 21.2502V21.2874C137.647 21.9207 137.154 22.4423 136.508 22.8521ZM132.369 15.2521C131.951 15.6992 131.685 16.407 131.571 17.2639L131.533 17.4501H136.432L136.394 17.3011C136.242 16.2952 135.977 15.6247 135.597 15.1776C135.217 14.7305 134.685 14.507 134.04 14.507C133.356 14.507 132.786 14.7678 132.369 15.2521Z" fill="white"/>
<path d="M145.559 18.3815C145.195 18.1953 144.794 17.9717 144.393 17.8227C143.7 17.5247 143.19 17.2266 142.862 16.9659C142.497 16.7051 142.315 16.2953 142.315 15.811C142.315 15.3639 142.461 14.9913 142.789 14.7678C143.08 14.507 143.481 14.3953 143.955 14.3953C144.648 14.3953 145.267 14.7678 145.741 15.5502L146.397 16.5933H146.47V14.4698C146.069 14.2835 145.668 14.0972 145.267 13.9855C144.83 13.8737 144.393 13.7992 143.882 13.7992C143.372 13.7992 142.898 13.911 142.461 14.1717C142.023 14.4325 141.659 14.7678 141.367 15.1776C141.075 15.5874 140.93 16.0717 140.93 16.5933C140.93 17.2266 141.112 17.7482 141.476 18.1208C141.841 18.4933 142.388 18.8658 143.08 19.1639L144.356 19.76C144.721 19.9462 145.012 20.1325 145.195 20.3933C145.413 20.6541 145.486 20.9521 145.486 21.3619C145.486 21.8462 145.304 22.256 145.012 22.5168C144.684 22.7776 144.247 22.9266 143.664 22.9266C142.679 22.9266 141.914 22.5168 141.44 21.6972L140.82 20.6168H140.711V22.7776C141.148 23.0011 141.622 23.1874 142.06 23.2992C142.534 23.4109 143.08 23.4854 143.736 23.4854C144.21 23.4854 144.684 23.3737 145.158 23.1502C145.632 22.9266 146.033 22.6286 146.361 22.1815C146.689 21.7717 146.835 21.2502 146.835 20.6541C146.835 20.0207 146.725 19.5364 146.47 19.2011C146.215 18.8658 145.924 18.6051 145.559 18.3815Z" fill="white"/>
<path d="M149.887 21.0331C149.887 21.6237 150.128 22.0406 150.611 22.3532C151.094 22.6659 151.698 22.8396 152.383 22.8396C153.067 22.8396 153.631 22.7006 154.074 22.4574C154.517 22.2143 154.839 21.9711 155 21.6932V21.6237C154.839 21.6584 154.638 21.6932 154.436 21.6932C154.195 21.7279 153.913 21.7279 153.631 21.7279C153.148 21.7279 152.705 21.6584 152.343 21.4847C151.94 21.311 151.739 21.0331 151.739 20.6162V14.6757H154.758V14.0157H151.739V11.8618L150.007 13.9809L148.196 14.6757H149.887V21.0331Z" fill="white"/>
<path d="M14.2325 26.168C13.8815 26.457 13.4914 26.5292 13.3744 26.5292V26.7459H18.9132V10.276C18.9132 8.25338 17.158 6.05017 13.3744 6.05017C9.59084 6.05017 7.83558 8.25338 7.83558 10.276V25.1567C7.83558 26.4208 6.93845 26.9987 6.08032 26.9987C5.22219 26.9987 4.32506 26.4208 4.32506 25.1567V10.276C4.32506 10.1676 4.32506 10.0954 4.32506 9.98706C4.32506 9.91482 4.32506 9.80647 4.32506 9.73423C4.32506 8.39786 4.87114 7.71161 5.30021 7.38655C5.69026 7.0976 6.11933 7.02536 6.23634 6.98924V6.7003H0.541504V22.9174C0.541504 25.0484 2.29676 27.3599 6.08032 27.3599C9.90289 27.3599 11.6191 25.0484 11.6191 22.9174V9.12022C11.6191 7.45878 12.5163 6.7003 13.3744 6.7003C14.2325 6.7003 15.1297 7.45878 15.1297 9.12022V23.6759C15.1297 25.1206 14.6616 25.843 14.2325 26.168Z" fill="#0069BF"/>
<path d="M2.92301 4.75866C3.86249 4.75866 4.62409 3.89132 4.62409 2.82141C4.62409 1.75149 3.86249 0.884155 2.92301 0.884155C1.98353 0.884155 1.22192 1.75149 1.22192 2.82141C1.22192 3.89132 1.98353 4.75866 2.92301 4.75866Z" fill="#0069BF"/>
</svg>
