<svg width="156" height="27" viewBox="0 0 156 27" fill="none" xmlns="http://www.w3.org/2000/svg">
<path d="M32.9613 21.8459L31.2224 21.006V10.6356L32.9613 9.79573V9.68618H27.5178V9.79573L29.2945 10.6356V21.006L27.5178 21.8459V21.9554H32.9613V21.8459Z" fill="white"/>
<path d="M39.2521 21.8484L37.9082 21.2052V14.9876L37.9445 14.9519C38.1988 14.7017 38.562 14.5231 38.9979 14.4159C40.1239 14.13 41.0319 14.2372 41.6131 14.7017C42.0126 15.0233 42.1942 15.4879 42.1942 16.0953V21.2052L40.8503 21.8484V21.9556H45.209V21.8484L43.9014 21.2052V15.1663C43.9014 14.4159 43.6471 13.8441 43.1749 13.4868C42.6664 13.0937 42.0489 12.9151 41.2862 12.9151C40.705 12.9151 40.1965 13.0223 39.7243 13.2724C39.2521 13.5225 38.7799 13.8799 38.2714 14.3801L38.2351 14.4159H37.9809L37.7992 12.9151L35.0751 14.0228L36.31 15.0233V21.2052L35.0024 21.8484V21.9556H39.3611V21.8484H39.2521Z" fill="white"/>
<path d="M52.9005 21.2974C53.2286 20.8876 53.3744 20.366 53.3744 19.77C53.3744 19.1366 53.265 18.6523 53.0099 18.317C52.7547 17.9817 52.4631 17.7209 52.0986 17.4974C51.7341 17.3111 51.3331 17.0876 50.9321 16.9386C50.2395 16.6406 49.7292 16.3425 49.4011 16.0817C49.0366 15.8209 48.8544 15.4111 48.8544 14.9268C48.8544 14.4798 49.0002 14.1072 49.3282 13.8837C49.6199 13.6229 50.0208 13.5111 50.4947 13.5111C51.1873 13.5111 51.807 13.8837 52.2808 14.666L52.937 15.7092H53.0099V13.5857C52.6089 13.3994 52.2079 13.2131 51.807 13.1013C51.3695 12.9896 50.9321 12.9151 50.4218 12.9151C49.9115 12.9151 49.4376 13.0268 49.0002 13.2876C48.5628 13.5484 48.1982 13.8837 47.9066 14.2935C47.615 14.7033 47.4692 15.1876 47.4692 15.7092C47.4692 16.3425 47.6515 16.8641 48.016 17.2366C48.3805 17.6092 48.9273 17.9817 49.6199 18.2798L50.8957 18.8758C51.2602 19.0621 51.5518 19.2484 51.7341 19.5092C51.9528 19.77 52.0257 20.068 52.0257 20.4778C52.0257 20.9621 51.8434 21.3719 51.5518 21.6327C51.2237 21.8935 50.7863 22.0425 50.2031 22.0425C49.2189 22.0425 48.4534 21.6327 47.9795 20.8131L47.3598 19.7327H47.2505V21.8935C47.6879 22.117 48.1618 22.3033 48.5992 22.415C49.0731 22.5268 49.6199 22.6013 50.276 22.6013C50.7499 22.6013 51.2237 22.4896 51.6976 22.266C52.1715 22.0425 52.5725 21.7072 52.9005 21.2974Z" fill="white"/>
<path d="M61.9743 21.6069C62.4171 21.363 62.7392 21.119 62.9003 20.8402V20.7705C62.7392 20.8054 62.5379 20.8402 62.3366 20.8402C62.095 20.8751 61.8132 20.8751 61.5314 20.8751C61.0482 20.8751 60.6053 20.8054 60.243 20.6311C59.8403 20.4569 59.639 20.1781 59.639 19.7599V13.8005H62.6587V13.1384H59.639V10.9777L57.9078 13.1035L56.0959 13.8005H57.787V20.1432C57.787 20.7357 58.0285 21.1539 58.5117 21.4675C58.9948 21.7812 59.5988 21.9554 60.2832 21.9554C60.9274 21.9554 61.5314 21.8509 61.9743 21.6069Z" fill="white"/>
<path fill-rule="evenodd" clip-rule="evenodd" d="M65.6834 18.7812C66.191 18.2943 67.0889 17.9198 68.3382 17.6202L70.6026 17.0584V15.4854C70.6026 14.9237 70.4074 14.4742 69.978 14.0997C69.5876 13.7627 69.08 13.5754 68.5334 13.5754C67.9478 13.5754 67.5184 13.7252 67.2841 14.0248C67.0499 14.3244 66.9328 14.7364 66.9328 15.2233V15.86L66.8937 15.8974H65.7225C65.4882 15.8974 65.4101 15.86 65.3711 15.8225C65.3711 15.8127 65.3658 15.8004 65.3579 15.7822C65.3356 15.7306 65.293 15.6319 65.293 15.4105C65.293 15.1484 65.3711 14.8488 65.5663 14.5491C65.7225 14.2495 66.0348 13.9874 66.4252 13.7627C66.8547 13.5005 67.3232 13.2758 67.7526 13.126C68.6896 12.8264 69.7828 12.8638 70.7588 13.126C71.2663 13.2758 71.6568 13.5005 71.9691 13.8376C72.2814 14.1746 72.4376 14.624 72.4376 15.1858V21.1032L72.4766 21.1407C72.5937 21.253 72.7499 21.3654 72.9451 21.4403C73.1403 21.5152 73.4136 21.5527 73.765 21.5527H74.4677C74.3116 21.8148 74.0383 22.0395 73.7259 22.2643C73.3746 22.489 72.9451 22.6013 72.4766 22.6013C72.0081 22.6013 71.6177 22.489 71.3444 22.2643C71.0321 22.0395 70.8369 21.7399 70.7198 21.3654L70.6807 21.2905H70.3684L70.3293 21.328C69.9389 21.665 69.5095 21.9646 68.9629 22.2268C68.4554 22.489 67.8697 22.6013 67.2841 22.6013C66.5814 22.6013 66.0348 22.4141 65.6054 22.0395C65.1369 21.665 64.9417 21.1407 64.9417 20.4666C64.9417 19.8299 65.1759 19.2681 65.6834 18.7812ZM69.3922 21.3654C69.7045 21.2905 70.0559 21.1781 70.4463 21.0283L70.5243 20.9909H70.4853V17.6202L70.3291 17.6576C69.2751 17.8449 68.4552 18.0696 67.9477 18.2943C67.4012 18.519 67.0498 18.7812 66.8937 19.0808C66.7375 19.343 66.6594 19.68 66.6594 20.0171C66.6594 20.6912 66.9717 21.4777 68.4162 21.4777C68.7676 21.4777 69.0799 21.4403 69.3922 21.3654Z" fill="white"/>
<path d="M79.3979 21.8484L78.054 21.2052V14.9876L78.0903 14.9519C78.3445 14.7017 78.7078 14.5231 79.1436 14.4159C80.2696 14.13 81.1777 14.2372 81.7588 14.7017C82.1584 15.0233 82.34 15.4879 82.34 16.0953V21.2052L80.9961 21.8484V21.9556H85.3547V21.8484L84.0471 21.2052V15.1663C84.0471 14.4159 83.7929 13.8441 83.3207 13.4868C82.8122 13.0937 82.1947 12.9151 81.4319 12.9151C80.8508 12.9151 80.3423 13.0223 79.8701 13.2724C79.3979 13.5225 78.9257 13.8799 78.4172 14.3801L78.3809 14.4159H78.1266L77.945 12.9151L75.2208 14.0228L76.4558 15.0233V21.2052L75.1482 21.8484V21.9556H79.5068V21.8484H79.3979Z" fill="white"/>
<path d="M89.087 20.149C89.087 20.7395 89.3286 21.1564 89.8117 21.4691C90.2949 21.7817 90.8988 21.9554 91.5833 21.9554C92.2677 21.9554 92.8314 21.8165 93.2743 21.5733C93.7172 21.3301 94.0393 21.0869 94.2003 20.809V20.7395C94.0393 20.7743 93.838 20.809 93.6367 20.809C93.3951 20.8438 93.1133 20.8438 92.8314 20.8438C92.3483 20.8438 91.9054 20.7743 91.543 20.6006C91.1404 20.4269 90.9391 20.149 90.9391 19.7321V13.7916H93.9588V13.1316H90.9391V10.9777L89.2078 13.0968L87.396 13.7916H89.087V20.149Z" fill="white"/>
<path d="M104.407 21.8459L102.668 21.006V10.6356L104.407 9.79573V9.68618H98.9636V9.79573L100.703 10.6356V21.006L98.9636 21.8459V21.9554H104.407V21.8459Z" fill="white"/>
<path d="M111.378 21.8484L110.034 21.2052V14.9876L110.071 14.9519C110.325 14.7017 110.688 14.5231 111.124 14.4159C112.25 14.13 113.158 14.2372 113.739 14.7017C114.139 15.0233 114.32 15.4879 114.32 16.0953V21.2052L112.977 21.8484V21.9556H117.335V21.8484L116.028 21.2052V15.1663C116.028 14.4159 115.773 13.8441 115.301 13.4868C114.793 13.0937 114.175 12.9151 113.412 12.9151C112.831 12.9151 112.323 13.0223 111.851 13.2724C111.378 13.5225 110.906 13.8799 110.398 14.3801L110.361 14.4159H110.107L109.925 12.9151L107.201 14.0228L108.436 15.0233V21.2052L107.129 21.8484V21.9556H111.487V21.8484H111.378Z" fill="white"/>
<path d="M123.218 21.9556H123.552L127.379 13.717L128.903 13.0244V12.9151H125.038V13.0244L126.525 13.7535L126.487 13.9722L124.184 19.4403H123.961L121.323 13.8264V13.6077L122.957 13.0244V12.9151H118.016V13.0244L119.353 13.6441L123.218 21.9556Z" fill="white"/>
<path fill-rule="evenodd" clip-rule="evenodd" d="M136.948 21.968C136.302 22.3778 135.542 22.6013 134.669 22.6013C133.302 22.6013 132.238 22.2288 131.441 21.3719C130.681 20.5896 130.263 19.5092 130.263 18.168C130.263 17.1621 130.491 16.2307 130.909 15.4484C131.365 14.666 131.934 14.0327 132.618 13.5857C133.302 13.1386 134.099 12.9151 134.897 12.9151C135.998 12.9151 136.872 13.2876 137.479 14.0327C138.087 14.7778 138.391 15.8209 138.429 17.1994L138.391 17.2366H131.972V17.3856C131.972 18.019 132.124 18.6523 132.352 19.2111C132.58 19.77 132.998 20.2543 133.53 20.5896C134.099 20.9249 134.821 21.1111 135.732 21.1111C136.53 21.1111 137.441 20.8503 138.429 20.366V20.4033C138.087 21.0366 137.593 21.5582 136.948 21.968ZM132.808 14.368C132.39 14.815 132.124 15.5229 132.011 16.3798L131.973 16.566H136.872L136.834 16.417C136.682 15.4111 136.416 14.7405 136.036 14.2935C135.656 13.8464 135.125 13.6229 134.479 13.6229C133.795 13.6229 133.226 13.8837 132.808 14.368Z" fill="white"/>
<path d="M145.998 17.4974C145.634 17.3111 145.233 17.0876 144.832 16.9386C144.139 16.6406 143.629 16.3425 143.301 16.0817C142.937 15.8209 142.754 15.4111 142.754 14.9268C142.754 14.4798 142.9 14.1072 143.228 13.8837C143.52 13.6229 143.921 13.5111 144.395 13.5111C145.087 13.5111 145.707 13.8837 146.181 14.666L146.837 15.7092H146.91V13.5857C146.509 13.3994 146.108 13.2131 145.707 13.1013C145.269 12.9896 144.832 12.9151 144.322 12.9151C143.811 12.9151 143.337 13.0268 142.9 13.2876C142.463 13.5484 142.098 13.8837 141.807 14.2935C141.515 14.7033 141.369 15.1876 141.369 15.7092C141.369 16.3425 141.551 16.8641 141.916 17.2366C142.28 17.6092 142.827 17.9817 143.52 18.2798L144.796 18.8758C145.16 19.0621 145.452 19.2484 145.634 19.5092C145.853 19.77 145.926 20.068 145.926 20.4778C145.926 20.9621 145.743 21.3719 145.452 21.6327C145.124 21.8935 144.686 22.0425 144.103 22.0425C143.119 22.0425 142.353 21.6327 141.879 20.8131L141.26 19.7327H141.15V21.8935C141.588 22.117 142.062 22.3033 142.499 22.415C142.973 22.5268 143.52 22.6013 144.176 22.6013C144.65 22.6013 145.124 22.4896 145.598 22.266C146.071 22.0425 146.472 21.7445 146.8 21.2974C147.128 20.8876 147.274 20.366 147.274 19.77C147.274 19.1366 147.165 18.6523 146.91 18.317C146.655 17.9817 146.363 17.7209 145.998 17.4974Z" fill="white"/>
<path d="M150.326 20.149C150.326 20.7395 150.568 21.1564 151.051 21.4691C151.534 21.7817 152.138 21.9554 152.822 21.9554C153.507 21.9554 154.07 21.8165 154.513 21.5733C154.956 21.3301 155.278 21.0869 155.439 20.809V20.7395C155.278 20.7743 155.077 20.809 154.876 20.809C154.634 20.8438 154.352 20.8438 154.07 20.8438C153.587 20.8438 153.144 20.7743 152.782 20.6006C152.379 20.4269 152.178 20.149 152.178 19.7321V13.7916H155.198V13.1316H152.178V10.9777L150.447 13.0968L148.635 13.7916H150.326V20.149Z" fill="white"/>
<path d="M14.672 25.2839C14.3209 25.5728 13.9309 25.6451 13.8139 25.6451V25.8618H19.3527V9.39186C19.3527 7.36924 17.5974 5.16603 13.8139 5.16603C10.0303 5.16603 8.27503 7.36924 8.27503 9.39186V24.2726C8.27503 25.5367 7.3779 26.1146 6.51977 26.1146C5.66165 26.1146 4.76452 25.5367 4.76452 24.2726V9.39186C4.76452 9.2835 4.76452 9.21127 4.76452 9.10291C4.76452 9.03068 4.76452 8.92232 4.76452 8.85009C4.76452 7.51371 5.3106 6.82747 5.73966 6.5024C6.12972 6.21346 6.55878 6.14122 6.6758 6.1051V5.81616H0.980957V22.0332C0.980957 24.1642 2.73622 26.4758 6.51977 26.4758C10.3423 26.4758 12.0586 24.1642 12.0586 22.0332V8.23608C12.0586 6.57464 12.9557 5.81616 13.8139 5.81616C14.672 5.81616 15.5691 6.57464 15.5691 8.23608V22.7917C15.5691 24.2365 15.101 24.9588 14.672 25.2839Z" fill="#0069BF"/>
<path d="M3.36246 3.8745C4.30194 3.8745 5.06355 3.00716 5.06355 1.93725C5.06355 0.867337 4.30194 0 3.36246 0C2.42298 0 1.66138 0.867337 1.66138 1.93725C1.66138 3.00716 2.42298 3.8745 3.36246 3.8745Z" fill="#0069BF"/>
</svg>
