<svg width="48" height="48" viewBox="0 0 48 48" fill="none" xmlns="http://www.w3.org/2000/svg">
<circle cx="24" cy="24" r="24" fill="#001435"/>
<path d="M35.31 33.9429L33.2976 30.5884C32.3681 29.0401 31.877 27.2667 31.877 25.4617V22.5233C31.877 18.8137 29.4016 15.676 26.0166 14.6645V12.5606C26.0166 11.2678 24.9652 10.2164 23.6724 10.2164C22.3795 10.2164 21.3282 11.2678 21.3282 12.5606V14.6645C17.9432 15.676 15.4678 18.8137 15.4678 22.5233V25.4617C15.4678 27.2667 14.9767 29.0389 14.0484 30.5873L12.0359 33.9418C11.9269 34.1235 11.9246 34.3485 12.0289 34.5325C12.1333 34.7165 12.3266 34.8302 12.5376 34.8302H34.8072C35.0182 34.8302 35.2127 34.7166 35.317 34.5337C35.4214 34.3508 35.4179 34.1234 35.31 33.9429Z" fill="#0069BF"/>
<path d="M19.9814 36.0023C20.6425 37.3831 22.042 38.3465 23.6723 38.3465C25.3026 38.3465 26.7022 37.3831 27.3632 36.0023H19.9814V36.0023Z" fill="#0069BF"/>
</svg>
